<?xml version="1.0" encoding="UTF-8"?> <svg xmlns="http://www.w3.org/2000/svg" width="635" height="287" viewBox="0 0 635 287" fill="none"> <path d="M6 155.429L36.2632 195.714H79.9766L132.096 264.536L207.754 283L249.787 230.964H303.588L375.883 116.821L434.728 125.214L473.398 81.5714H503.661L581 1" stroke="url(#paint0_linear_705_532)" stroke-width="2"></path> <path d="M119.045 244.203C118.306 229.056 126.638 216.937 141.045 212.203C141.045 212.203 153.818 209.241 161.045 212.203C170.301 215.996 171.154 224.12 177.045 232.203C184.702 242.709 183.058 255.175 195.045 260.203C215.821 268.918 215.566 231.588 227.045 212.203C239.149 191.763 237.117 173.787 255.045 158.203C264.551 149.941 270.491 143.201 283.045 142.203C297.674 141.041 306.231 148.284 317.045 158.203C333.619 173.403 328.059 191.589 337.045 212.203C345.42 231.415 347.045 236.203 359.045 260.203C371.045 284.203 382.946 286.452 392.045 284.203C415.254 278.465 421.335 254.051 431.045 232.203C447.045 196.203 447.869 178.666 465.045 158.203C476.43 144.64 480.844 134.781 495.045 124.203C510.755 112.502 521.501 105.517 541.045 104.203C564.215 102.646 578.587 110.112 597.045 124.203C617.71 139.979 627.272 154.854 633.045 180.203" stroke="url(#paint1_linear_705_532)" stroke-width="2" stroke-dasharray="4 4"></path> <circle cx="4" cy="154" r="4" fill="#242486"></circle> <circle cx="36" cy="195" r="4" fill="#242486"></circle> <circle cx="79" cy="195" r="4" fill="#342EB0"></circle> <circle cx="131" cy="263" r="4" fill="#737BD3"></circle> <circle cx="207" cy="283" r="4" fill="#8F9DE2"></circle> <circle cx="249" cy="231" r="4" fill="#7179D2"></circle> <circle cx="302" cy="231" r="4" fill="#7982D7"></circle> <circle cx="434" cy="124" r="4" fill="#3F3BB7"></circle> <circle cx="474" cy="82" r="4" fill="#281FA9"></circle> <circle cx="503" cy="81" r="4" fill="#2B23AB"></circle> <circle cx="376" cy="120" r="15" stroke="url(#paint2_linear_705_532)" stroke-width="2"></circle> <circle cx="376" cy="120" r="7" fill="url(#paint3_linear_705_532)" stroke="url(#paint4_linear_705_532)" stroke-width="2"></circle> <defs> <linearGradient id="paint0_linear_705_532" x1="14.8894" y1="4.35009" x2="114.983" y2="367.087" gradientUnits="userSpaceOnUse"> <stop stop-color="#151152" stop-opacity="0.15"></stop> <stop offset="0.519264" stop-color="#251CA8"></stop> <stop offset="1" stop-color="#C2DCFF"></stop> </linearGradient> <linearGradient id="paint1_linear_705_532" x1="126.947" y1="106.149" x2="174.648" y2="347.087" gradientUnits="userSpaceOnUse"> <stop stop-color="#151152" stop-opacity="0.15"></stop> <stop offset="0.519264" stop-color="#251CA8"></stop> <stop offset="1" stop-color="#C2DCFF"></stop> </linearGradient> <linearGradient id="paint2_linear_705_532" x1="360.495" y1="104.38" x2="379.425" y2="138.025" gradientUnits="userSpaceOnUse"> <stop stop-color="#151152" stop-opacity="0.15"></stop> <stop offset="0.519264" stop-color="#251CA8"></stop> <stop offset="1" stop-color="#C2DCFF"></stop> </linearGradient> <linearGradient id="paint3_linear_705_532" x1="368.247" y1="112.19" x2="377.712" y2="129.012" gradientUnits="userSpaceOnUse"> <stop stop-color="#151152" stop-opacity="0.15"></stop> <stop offset="0.519264" stop-color="#251CA8"></stop> <stop offset="1" stop-color="#C2DCFF"></stop> </linearGradient> <linearGradient id="paint4_linear_705_532" x1="368.247" y1="112.19" x2="377.712" y2="129.012" gradientUnits="userSpaceOnUse"> <stop stop-color="#151152" stop-opacity="0.15"></stop> <stop offset="0.519264" stop-color="#251CA8"></stop> <stop offset="1" stop-color="#C2DCFF"></stop> </linearGradient> </defs> </svg> 