<?xml version="1.0" encoding="UTF-8"?> <svg xmlns="http://www.w3.org/2000/svg" width="80" height="80" viewBox="0 0 80 80" fill="none"> <path d="M16.224 25.2C16.479 24.7933 16.7444 24.3931 17.02 24H62.98C63.256 24.392 63.52 24.796 63.776 25.2L71.856 20.536L75.856 27.464L67.004 32.576C67.652 34.936 68 37.428 68 40V44H80V52H68C68 55.812 67.24 59.448 65.856 62.76L75.856 68.536L71.856 75.464L61.752 69.632C57.3168 75.1102 50.9766 78.7117 44 79.716V48H36V79.72C29.0228 78.7147 22.6826 75.1117 18.248 69.632L8.144 75.464L4.144 68.536L14.144 62.764C12.7241 59.3532 11.9953 55.6945 12 52H0V44H12V40C12 37.428 12.348 34.94 12.996 32.576L4.144 27.464L8.144 20.536L16.224 25.2ZM24 16C24 11.7565 25.6857 7.68687 28.6863 4.68629C31.6869 1.68571 35.7565 0 40 0C44.2435 0 48.3131 1.68571 51.3137 4.68629C54.3143 7.68687 56 11.7565 56 16H24Z" fill="white"></path> </svg> 