<?xml version="1.0" encoding="UTF-8"?> <svg xmlns="http://www.w3.org/2000/svg" width="71" height="71" viewBox="0 0 71 71" fill="none"> <path d="M9.36022 0.818868C11.8715 -0.0770119 14.5855 -0.241674 17.1866 0.344025C19.7878 0.929724 22.1692 2.24172 24.0542 4.12749C25.9391 6.01325 27.25 8.39531 27.8345 10.9967C28.4191 13.5981 28.2532 16.312 27.3562 18.8229L70.9981 62.4648L62.4588 71L18.817 27.3621C16.3057 28.258 13.5917 28.4227 10.9906 27.837C8.38943 27.2513 6.00796 25.9393 4.12303 24.0535C2.23811 22.1678 0.927179 19.7857 0.342643 17.1843C-0.241893 14.5829 -0.0760175 11.869 0.820985 9.35811L9.81898 18.3601C10.3758 18.9366 11.0419 19.3965 11.7783 19.7128C12.5148 20.0292 13.3068 20.1957 14.1083 20.2027C14.9098 20.2096 15.7046 20.0569 16.4465 19.7534C17.1883 19.4499 17.8623 19.0017 18.429 18.4349C18.9958 17.8682 19.444 17.1942 19.7475 16.4524C20.051 15.7106 20.2037 14.9157 20.1968 14.1142C20.1898 13.3128 20.0233 12.5207 19.7069 11.7842C19.3906 11.0478 18.9307 10.3817 18.3542 9.82491L9.3562 0.814844L9.36022 0.818868ZM51.0785 8.40036L63.8834 1.28567L69.5735 6.97581L62.4588 19.7806L55.3441 21.2052L46.813 29.7404L41.1188 24.0503L49.654 15.5151L51.0785 8.40036ZM22.6238 39.7002L31.159 48.2394L11.2395 68.1589C10.1411 69.2471 8.66693 69.8723 7.12111 69.9055C5.57529 69.9387 4.07566 69.3775 2.93146 68.3376C1.78727 67.2976 1.08576 65.8582 0.971614 64.3163C0.857466 62.7743 1.33938 61.2474 2.31797 60.0503L2.70831 59.6197L22.6278 39.7002H22.6238Z" fill="white"></path> </svg> 