<?xml version="1.0" encoding="UTF-8"?> <svg xmlns="http://www.w3.org/2000/svg" width="96" height="83" viewBox="0 0 96 83" fill="none"> <path d="M26.1872 82.82C20.2278 82.3624 14.5654 80.0336 10.0084 76.1661C5.45144 72.2986 2.23295 67.0902 0.812496 61.2845C-0.607957 55.4788 -0.15774 49.3728 2.09886 43.8382C4.35546 38.3037 8.30306 33.6237 13.378 30.4663C14.4578 22.0465 18.5688 14.3087 24.9417 8.70101C31.3145 3.0933 39.5124 0 48.0012 0C56.49 0 64.6879 3.0933 71.0607 8.70101C77.4335 14.3087 81.5445 22.0465 82.6244 30.4663C87.6993 33.6237 91.6469 38.3037 93.9035 43.8382C96.1601 49.3728 96.6103 55.4788 95.1899 61.2845C93.7694 67.0902 90.5509 72.2986 85.994 76.1661C81.437 80.0336 75.7746 82.3624 69.8152 82.82V82.9029H26.1872V82.82ZM52.364 43.6376V26.1864H43.6384V43.6376H30.55L48.0012 65.4517L65.4524 43.6376H52.364Z" fill="white"></path> </svg> 