<?xml version="1.0" encoding="UTF-8"?> <svg xmlns="http://www.w3.org/2000/svg" width="134" height="120" viewBox="0 0 134 120" fill="none"> <path d="M6.66667 0H126.667C128.435 0 130.13 0.702379 131.381 1.95262C132.631 3.20286 133.333 4.89856 133.333 6.66667V113.333C133.333 115.101 132.631 116.797 131.381 118.047C130.13 119.298 128.435 120 126.667 120H86.6667C86.6679 115.536 86.3269 111.079 85.6467 106.667H120V13.3333H13.3333V34.3533C8.92149 33.6731 4.46398 33.3321 0 33.3333V6.66667C0 4.89856 0.702379 3.20286 1.95262 1.95262C3.20286 0.702379 4.89856 0 6.66667 0ZM73.3333 120H60C60 104.087 53.6786 88.8258 42.4264 77.5736C31.1742 66.3214 15.913 60 0 60V46.6667C40.5 46.6667 73.3333 79.5 73.3333 120ZM46.6667 120H33.3333C33.3333 115.623 32.4711 111.288 30.796 107.244C29.1208 103.2 26.6655 99.5251 23.5702 96.4298C20.4749 93.3345 16.8003 90.8792 12.7561 89.204C8.71193 87.5289 4.3774 86.6667 0 86.6667V73.3333C12.3768 73.3333 24.2466 78.25 32.9983 87.0017C41.75 95.7534 46.6667 107.623 46.6667 120ZM20 120H0V100C5.30433 100 10.3914 102.107 14.1421 105.858C17.8929 109.609 20 114.696 20 120ZM82.4867 93.3333C78.2513 80.2822 70.985 68.4197 61.2826 58.7174C51.5803 49.015 39.7178 41.7487 26.6667 37.5133V26.6667H106.667V93.3333H82.4867Z" fill="url(#paint0_radial_405_700)"></path> <defs> <radialGradient id="paint0_radial_405_700" cx="0" cy="0" r="1" gradientUnits="userSpaceOnUse" gradientTransform="translate(-122.222 -44.3182) rotate(33.5729) scale(371.734 281.783)"> <stop offset="0.386851" stop-color="#5858F5"></stop> <stop offset="0.756872" stop-color="#141466"></stop> </radialGradient> </defs> </svg> 