<?xml version="1.0" encoding="UTF-8"?> <svg xmlns="http://www.w3.org/2000/svg" width="140" height="120" viewBox="0 0 140 120" fill="none"> <path d="M133.333 20H86.6667C76.058 20 65.8839 24.2143 58.3824 31.7157C50.8809 39.2172 46.6667 49.3913 46.6667 60C46.6667 70.6087 50.8809 80.7828 58.3824 88.2843C65.8839 95.7857 76.058 100 86.6667 100H133.333V113.333C133.333 115.101 132.631 116.797 131.381 118.047C130.13 119.298 128.435 120 126.667 120H6.66667C4.89856 120 3.20286 119.298 1.95262 118.047C0.702379 116.797 0 115.101 0 113.333V6.66667C0 4.89856 0.702379 3.20286 1.95262 1.95262C3.20286 0.702379 4.89856 0 6.66667 0H126.667C128.435 0 130.13 0.702379 131.381 1.95262C132.631 3.20286 133.333 4.89856 133.333 6.66667V20ZM86.6667 33.3333H140V86.6667H86.6667C79.5942 86.6667 72.8115 83.8571 67.8105 78.8562C62.8095 73.8552 60 67.0724 60 60C60 52.9276 62.8095 46.1448 67.8105 41.1438C72.8115 36.1428 79.5942 33.3333 86.6667 33.3333ZM86.6667 53.3333V66.6667H106.667V53.3333H86.6667Z" fill="url(#paint0_radial_405_707)"></path> <defs> <radialGradient id="paint0_radial_405_707" cx="0" cy="0" r="1" gradientUnits="userSpaceOnUse" gradientTransform="translate(-128.333 -44.3182) rotate(32.2975) scale(384.732 285.876)"> <stop offset="0.386851" stop-color="#5858F5"></stop> <stop offset="0.756872" stop-color="#141466"></stop> </radialGradient> </defs> </svg> 