<?xml version="1.0" encoding="UTF-8"?> <svg xmlns="http://www.w3.org/2000/svg" width="120" height="147" viewBox="0 0 120 147" fill="none"> <path d="M5.22 12.1733L60 0L114.78 12.1733C116.26 12.5024 117.584 13.3264 118.533 14.5094C119.482 15.6923 120 17.1634 120 18.68V85.26C120 91.8449 118.373 98.3278 115.266 104.133C112.158 109.939 107.666 114.888 102.187 118.54L60 146.667L17.8133 118.54C12.3352 114.888 7.84307 109.941 4.73565 104.136C1.62824 98.332 0.00157571 91.8504 0 85.2667V18.68C0.000260252 17.1634 0.517586 15.6923 1.4666 14.5094C2.41561 13.3264 3.73958 12.5024 5.22 12.1733ZM66.6667 60V26.6667L33.3333 73.3333H53.3333V106.667L86.6667 60H66.6667Z" fill="url(#paint0_radial_405_715)"></path> <defs> <radialGradient id="paint0_radial_405_715" cx="0" cy="0" r="1" gradientUnits="userSpaceOnUse" gradientTransform="translate(-110 -54.1667) rotate(42.0298) scale(375.271 307.04)"> <stop offset="0.386851" stop-color="#5858F5"></stop> <stop offset="0.756872" stop-color="#141466"></stop> </radialGradient> </defs> </svg> 