<?xml version="1.0" encoding="UTF-8"?> <svg xmlns="http://www.w3.org/2000/svg" width="80" height="72" viewBox="0 0 80 72" fill="none"> <path d="M4 0H76C77.0609 0 78.0783 0.421427 78.8284 1.17157C79.5786 1.92172 80 2.93913 80 4V68C80 69.0609 79.5786 70.0783 78.8284 70.8284C78.0783 71.5786 77.0609 72 76 72H4C2.93913 72 1.92172 71.5786 1.17157 70.8284C0.421427 70.0783 0 69.0609 0 68V4C0 2.93913 0.421427 1.92172 1.17157 1.17157C1.92172 0.421427 2.93913 0 4 0ZM40 48V56H64V48H40ZM25.656 36L14.344 47.312L20 52.972L36.972 36L20 19.028L14.344 24.688L25.656 36Z" fill="white"></path> </svg> 