<?xml version="1.0" encoding="UTF-8"?> <svg xmlns="http://www.w3.org/2000/svg" width="80" height="76" viewBox="0 0 80 76" fill="none"> <path d="M48.0002 60V68L56.0002 72V76H24.0002L23.9842 72.016L32.0002 68V60H3.96816C3.44291 59.9969 2.92343 59.8901 2.43951 59.6858C1.9556 59.4815 1.51675 59.1838 1.14813 58.8096C0.779506 58.4354 0.488356 57.9921 0.291366 57.5052C0.0943748 57.0183 -0.00458325 56.4972 0.000162984 55.972V4.028C0.000162984 1.804 1.82016 0 3.96816 0H76.0322C78.2242 0 80.0002 1.796 80.0002 4.028V55.972C80.0002 58.196 78.1802 60 76.0322 60H48.0002ZM8.00016 44V52H72.0002V44H8.00016Z" fill="white"></path> </svg> 