<?xml version="1.0" encoding="UTF-8"?> <svg xmlns="http://www.w3.org/2000/svg" width="80" height="69" viewBox="0 0 80 69" fill="none"> <path fill-rule="evenodd" clip-rule="evenodd" d="M60.6889 68.4326C65.4786 70.5281 67.2748 66.1375 67.2748 66.1375L79.9477 2.4737C79.8479 -1.81712 74.0603 0.777329 74.0603 0.777329L3.11209 28.6178C3.11209 28.6178 -0.280653 29.8152 0.0187063 31.9107C0.318066 34.0062 3.0123 35.0041 3.0123 35.0041L20.8741 40.9913C20.8741 40.9913 26.2626 58.6535 27.3602 62.0462C28.3581 65.3392 29.2562 65.439 29.2562 65.439C30.254 65.8381 31.1521 65.1396 31.1521 65.1396L42.7273 54.662L60.6889 68.4326ZM63.7823 13.7495C63.7823 13.7495 66.277 12.2527 66.1772 13.7495C66.1772 13.7495 66.5763 13.949 65.2791 15.346C64.0817 16.5435 35.8421 41.8893 32.0502 45.282C31.7508 45.4816 31.5513 45.7809 31.5513 46.1801L30.4536 55.56C30.254 56.5579 28.9568 56.6577 28.6575 55.7596L23.9675 40.3925C23.7679 39.7937 23.9675 39.0952 24.5662 38.6961L63.7823 13.7495Z" fill="white"></path> </svg> 