<?xml version="1.0" encoding="UTF-8"?> <svg xmlns="http://www.w3.org/2000/svg" width="82" height="83" viewBox="0 0 82 83" fill="none"> <path fill-rule="evenodd" clip-rule="evenodd" d="M41.3365 0C52.0617 0 62.5634 4.24537 70.1604 12.0658C77.7574 19.6628 82.0027 29.941 82.0027 40.8896C82.0027 63.4571 63.6806 82.0027 41.1131 82.0027C34.4099 82.0027 27.7066 80.4386 21.6737 77.087L0 82.673L5.80946 61.4462C2.45785 55.1898 0.446881 48.2632 0.446881 41.1131C0.223441 18.5456 18.5456 0 41.3365 0ZM60.1998 49.9107L62.8945 51.1356C63.3844 51.3806 63.6294 51.6256 63.6294 51.6256V53.3404C63.3844 54.5653 63.1395 55.7902 62.6495 56.7701C62.4045 57.26 61.9146 57.75 61.4246 58.2399C61.1797 58.4849 60.9347 58.6686 60.6897 58.8524C60.4447 59.0361 60.1997 59.2198 59.9548 59.4648L59.4648 59.9548C59.1897 60.2299 58.9145 60.3505 58.596 60.4902C58.3473 60.5992 58.0722 60.7199 57.75 60.9347C56.7701 61.4246 55.3002 61.9146 54.0753 61.9146H51.6256C51.2581 61.7921 50.8294 61.7309 50.4007 61.6696C49.972 61.6084 49.5433 61.5471 49.1758 61.4246C42.5614 59.7098 36.6819 56.5251 31.5374 52.1155C31.2173 51.6354 30.7927 51.2598 30.3318 50.8521C30.0872 50.6358 29.8324 50.4105 29.5776 50.1557L28.5977 49.1758C24.6781 45.5011 21.7384 41.3365 19.5336 36.682L19.2886 35.947C18.5536 34.2322 18.0637 32.2724 18.0637 30.3125C18.0637 27.6178 19.0436 24.9231 20.7584 22.7183C21.0034 22.4733 21.1871 22.2283 21.3709 21.9833C21.5546 21.7383 21.7383 21.4934 21.9833 21.2484C22.2283 21.1259 22.4733 20.9422 22.7183 20.7584C22.9632 20.5747 23.2082 20.391 23.4532 20.2685L23.6982 20.0235C23.9431 20.0235 24.1881 19.9623 24.4331 19.901C24.6781 19.8398 24.923 19.7785 25.168 19.7785H27.8628C28.5977 20.0235 29.0877 20.2685 29.5776 21.0034C30.3125 22.4733 33.2523 29.0877 33.4972 30.3125C33.7422 31.0475 33.4973 32.0274 33.0073 32.7623C32.7623 33.0073 32.5786 33.3135 32.3949 33.6197C32.2111 33.926 32.0274 34.2322 31.7824 34.4772C31.0475 35.2121 30.0676 36.437 30.0676 36.437C29.8226 36.682 29.8226 37.1719 29.8226 37.6619C29.9162 37.849 29.974 38.0004 30.0234 38.1297C30.1033 38.339 30.1611 38.4904 30.3125 38.6418L30.5575 39.1317C31.7824 41.3365 33.4972 43.2963 35.2121 45.0112C35.4571 45.2562 35.7633 45.5011 36.0695 45.7461C36.3757 45.9911 36.682 46.2361 36.9269 46.481C38.8867 48.4408 41.3365 49.9107 44.0313 51.1356L45.2562 51.6256C45.5011 51.8705 45.9911 52.1155 46.2361 52.1155H46.481C46.971 52.1155 47.4609 51.8705 47.7059 51.3806C51.1356 47.4609 51.3806 47.216 51.3806 47.216C51.8705 46.971 52.3605 46.726 53.0954 46.726C53.2179 46.726 53.3404 46.7873 53.4629 46.8485C53.5854 46.9097 53.7079 46.971 53.8303 46.971C56.2801 48.1959 60.1998 49.9107 60.1998 49.9107Z" fill="white"></path> </svg> 